<?xml version="1.0" encoding="UTF-8"?>
<svg xmlns="http://www.w3.org/2000/svg" xmlns:xlink="http://www.w3.org/1999/xlink" viewBox="0 0 20 20" width="20px" height="20px">
<g id="surface763470">
<path style=" stroke:none;fill-rule:nonzero;fill:rgb(80.000001%,50.196081%,55.686277%);fill-opacity:1;" d="M 9.722656 1.671875 C 5.515625 1.808594 1.976562 5.210938 1.6875 9.40625 C 1.378906 13.847656 4.554688 17.601562 8.753906 18.230469 L 8.753906 12.207031 L 7.410156 12.207031 C 6.804688 12.207031 6.316406 11.71875 6.316406 11.113281 C 6.316406 10.507812 6.804688 10.019531 7.410156 10.019531 L 8.753906 10.019531 L 8.753906 8.5625 C 8.753906 6.148438 9.929688 5.089844 11.9375 5.089844 C 12.234375 5.089844 12.488281 5.09375 12.703125 5.105469 C 13.234375 5.132812 13.644531 5.574219 13.644531 6.105469 C 13.644531 6.65625 13.195312 7.105469 12.644531 7.105469 L 12.277344 7.105469 C 11.425781 7.105469 11.125 7.910156 11.125 8.820312 L 11.125 10.019531 L 12.683594 10.019531 C 13.175781 10.019531 13.554688 10.457031 13.480469 10.945312 L 13.390625 11.527344 C 13.328125 11.921875 12.992188 12.210938 12.59375 12.210938 L 11.125 12.210938 L 11.125 18.25 C 15.195312 17.695312 18.332031 14.21875 18.332031 10 C 18.332031 5.304688 14.449219 1.515625 9.722656 1.671875 Z M 9.722656 1.671875 "/>
</g>
</svg>
