<?xml version="1.0" encoding="UTF-8"?>
<svg xmlns="http://www.w3.org/2000/svg" xmlns:xlink="http://www.w3.org/1999/xlink" viewBox="0 0 20 20" width="20px" height="20px">
<g id="surface883178">
<path style=" stroke:none;fill-rule:nonzero;fill:rgb(80.000001%,50.196081%,55.686277%);fill-opacity:1;" d="M 10 1.664062 C 5.40625 1.664062 1.667969 5.40625 1.667969 10 C 1.667969 11.363281 2.027344 12.640625 2.609375 13.777344 L 1.707031 17.011719 C 1.496094 17.761719 2.238281 18.503906 2.988281 18.296875 L 6.226562 17.390625 C 7.363281 17.972656 8.636719 18.332031 10 18.332031 C 14.59375 18.332031 18.332031 14.59375 18.332031 10 C 18.332031 5.40625 14.59375 1.664062 10 1.664062 Z M 10 2.914062 C 13.917969 2.914062 17.082031 6.078125 17.082031 10 C 17.082031 13.917969 13.917969 17.082031 10 17.082031 C 8.75 17.082031 7.578125 16.757812 6.558594 16.1875 C 6.414062 16.109375 6.246094 16.089844 6.085938 16.132812 L 3.007812 16.992188 L 3.867188 13.914062 C 3.914062 13.757812 3.894531 13.585938 3.8125 13.441406 C 3.242188 12.421875 2.917969 11.25 2.917969 10 C 2.917969 6.078125 6.082031 2.914062 10 2.914062 Z M 7.183594 6.25 C 7.050781 6.25 6.835938 6.300781 6.652344 6.5 C 6.46875 6.699219 5.957031 7.179688 5.957031 8.15625 C 5.957031 9.136719 6.667969 10.082031 6.769531 10.214844 C 6.867188 10.347656 8.144531 12.421875 10.167969 13.21875 C 11.847656 13.882812 12.191406 13.75 12.554688 13.714844 C 12.921875 13.683594 13.734375 13.234375 13.898438 12.769531 C 14.066406 12.304688 14.066406 11.910156 14.015625 11.828125 C 13.964844 11.742188 13.832031 11.691406 13.632812 11.59375 C 13.4375 11.492188 12.457031 11.011719 12.277344 10.945312 C 12.09375 10.878906 11.960938 10.847656 11.828125 11.046875 C 11.695312 11.246094 11.3125 11.691406 11.195312 11.824219 C 11.082031 11.957031 10.964844 11.976562 10.765625 11.875 C 10.566406 11.777344 9.925781 11.566406 9.164062 10.886719 C 8.574219 10.359375 8.175781 9.710938 8.058594 9.511719 C 7.941406 9.3125 8.046875 9.203125 8.144531 9.105469 C 8.234375 9.015625 8.34375 8.871094 8.445312 8.753906 C 8.542969 8.640625 8.578125 8.558594 8.644531 8.425781 C 8.707031 8.292969 8.675781 8.175781 8.625 8.078125 C 8.578125 7.976562 8.191406 6.992188 8.011719 6.597656 C 7.863281 6.265625 7.707031 6.261719 7.566406 6.253906 C 7.449219 6.25 7.316406 6.25 7.183594 6.25 Z M 7.183594 6.25 "/>
</g>
</svg>
